<?xml version="1.0" encoding="UTF-8" standalone="no"?>
<!-- Created with Inkscape (http://www.inkscape.org/) -->

<svg
   xmlns:dc="http://purl.org/dc/elements/1.1/"
   xmlns:cc="http://creativecommons.org/ns#"
   xmlns:rdf="http://www.w3.org/1999/02/22-rdf-syntax-ns#"
   xmlns:svg="http://www.w3.org/2000/svg"
   xmlns="http://www.w3.org/2000/svg"
   version="1.1"
   width="181.998mm"
   height="186.39799mm"
   viewBox="0 0 182.004 186.404"
   id="svg2"
   xml:space="preserve"
   style="fill-rule:evenodd"><metadata
   id="metadata16"><rdf:RDF><cc:Work
       rdf:about=""><dc:format>image/svg+xml</dc:format><dc:type
         rdf:resource="http://purl.org/dc/dcmitype/StillImage" /><dc:title></dc:title></cc:Work></rdf:RDF></metadata>
 <defs
   id="defs4">
  <style
   type="text/css"
   id="style6" />
 </defs>
 <g
   id="Ebene_x0020_1"
   style="fill:#cc1f2f;fill-opacity:1">
  <metadata
   id="CorelCorpID_0Corel-Layer" />
  <path
   d="m 72.6014,0.200007 -0.600022,0.200007 -0.800029,0.400015 -1.00004,0.600022 -1.00004,1.00004 -0.600022,1.00004 -0.599622,1.60006 1.19964,18.0003 -39.4006,0.400015 -19.2007,19.8003 61.0014,4.60017 2.60009,28.0006 -2.40009,-1.60006 c -0.728926,-0.364513 -1.45815,-0.810729 -2.20008,-1.40005 -0.916433,-0.523519 -2.04957,-1.05104 -2.7997,-1.79967 l -1.80007,-1.20044 -1.60006,-0.999636 -1.60006,-1.00004 -2.00007,-1.20004 -1.40005,-0.800029 -1.60006,-1.00004 -4.20015,-2.40009 -1.80007,-1.00004 -3.00011,-1.40005 -2.8001,-1.40005 -1.60006,-0.800029 -2.20008,-1.00004 -2.40009,-1.00004 -2.7997,-1.00004 -3.20012,-1.00004 -4.40016,-1.00004 -2.8001,-0.400015 -5.4002,0 -1.00004,0.200007 -2.00007,0.400015 -1.60006,0.400015 -1.00004,0.400015 -1.40005,0.600022 -0.600022,0.400015 -1.00004,0.600022 -1.40005,1.00004 -2.00007,2.00007 c -0.261809,0.523519 -0.671924,0.744927 -1.00004,1.20004 l -0.599622,0.800029 c -0.099404,0.137905 -0.300311,0.661124 -0.400415,0.800029 l -1.19964,2.00007 -0.800029,1.60006 -0.600022,1.40005 -0.800029,2.60009 -0.600022,1.60006 -0.400015,1.79967 -0.400015,1.80007 -0.400015,2.00007 -0.400015,2.40009 -0.400015,3.40012 -0.200007,3.40012 0,10.4004 0.200007,3.40012 0.400015,3.799744 0.400015,2.60009 0.200007,1.60006 0.400015,2.20008 0.600022,3.00011 0.400015,1.60006 0.600022,2.40009 0.400015,1.40005 0.400015,1.40005 0.200007,0.60002 0.400015,1.20004 c 0.292111,0.58412 0.352413,1.20224 0.600022,1.80007 l 0.400015,1.20004 0.400015,1.00004 0.199607,0.60002 0.400415,1.00004 0.599622,1.60006 0.400015,0.80003 0.600022,1.40005 0.400015,0.80003 0.400015,0.80003 0.600022,1.20004 0.400015,0.80003 0.600022,1.19964 0.600022,1.20004 1.00004,1.80007 0.400015,0.60002 0.600022,1.00004 0.400015,0.60002 1.00004,1.60006 0.800029,1.20004 0.800029,1.20004 1.00004,1.40005 1.00004,1.40005 0.800029,1.00004 1.00004,1.20004 0.600022,0.80003 1.00004,1.20004 3.00011,3.00011 1.00004,0.80003 1.00004,0.60002 1.20004,0.60002 0.800029,0.40002 1.00004,0.40001 2.8001,0.60002 5.5998,0 3.20012,-0.60002 1.20004,-0.40001 3.00011,-1.40005 1.40005,-0.80003 1.00004,-0.60002 2.00007,-1.20004 1.60006,-1.20004 1.40005,-1.00004 1.60006,-1.20004 2.60009,-2.20008 1.00004,-0.80003 2.40009,-2.00007 2.00007,-1.80007 2.20008,-2.00007 2.20008,-1.80007 c 0.702925,-0.70293 1.88967,-1.95547 2.20008,-2.20008 0.0988,-0.0528 0.873432,-0.82083 1.39965,-1.20004 l 1.20004,-1.00004 0.200007,-0.20001 0.200007,-0.40002 0,-0.59962 -0.200007,-0.2 -5.79981,-0.20001 -2.20008,-0.40002 -1.80007,-0.60002 -1.00004,-0.60002 -1.00004,-0.80003 -1.00004,-1.00004 -0.800029,-1.00004 -1.20004,-2.20008 -1.20004,-3.40012 -0.800029,-2.60009 -0.600022,-3.20012 -0.600022,-3.40012 -0.600022,-2.60009 -0.600022,-3.40012 -0.600022,-3.20012 -0.800029,-3.99975 0,-2.000069 0.800029,-0.800029 2.60009,0 2.00007,0.400015 2.40009,0.600022 c 1.35685,0.54272 2.6878,0.943934 4.00015,1.600061 l 2.20008,1.00004 1.40005,0.60002 0.800029,0.39961 c 0.806529,0.58123 2.08528,0.88554 2.7997,1.60006 l 2.00007,1.20004 2.20008,1.60006 2.40009,2.40009 0.800029,1.60006 1.40005,13.6005 23.400397,0 1.00004,-10.4004 0.60002,-2.60009 1.20004,-2.20008 2.40009,-2.40009 0.80003,-0.60002 c 0.69063,-0.34531 1.37675,-0.93263 2.00007,-1.40005 0.81003,-0.54002 1.72106,-1.24845 2.60009,-1.60006 1.03934,-0.51972 1.99107,-1.09524 3.00011,-1.59966 l 1.80007,-0.80003 c 0.75603,-0.33001 1.62826,-0.717322 2.40009,-1.000036 l 1.80007,-0.600022 1.00004,-0.400015 2.40009,-0.600022 2.00007,-0.400015 2.60009,0 0.80003,0.800029 0,2.000071 c -0.0147,0.29671 -1.42055,6.98475 -1.60006,7.99989 l -0.40001,2.60009 -0.40002,2.00007 -0.60002,3.40012 -0.40001,1.80007 -0.40002,2.00007 -0.60002,2.20008 -0.60002,2.00007 -0.80003,1.80007 -0.60002,1.20004 -0.60003,1.00004 -0.80003,1.00004 -1.00004,1.00004 -2.00007,1.40005 -1.80007,0.60002 -2.20008,0.40002 -5.80021,0.2 -0.2,0.20001 0,0.59962 0.2,0.40002 c 0.15981,0.2217 1.13035,0.95363 1.40005,1.20004 l 1.00004,1.00004 2.00007,1.80007 1.00004,1.00004 1.40005,1.20004 2.60009,2.20008 1.60006,1.60006 4.80017,4.00015 1.60006,1.20004 c 2.1e-4,-1e-4 8.3998,5.6004 8.3999,5.6002 1.1e-4,-2e-4 2.96221,1.60526 3.60013,1.80007 l 2.00007,0.60002 2.40009,0.40001 5.6002,0 2.8001,-0.60002 c 0.24481,-0.0746 2.25618,-0.91823 2.40009,-1.00004 l 2.20008,-1.60006 3.60013,-3.60013 c 1.18134,-1.18134 2.01567,-2.61499 3.19972,-3.80014 l 1.40005,-2.20008 3.40012,-5.00018 c -1e-4,-1e-4 2.40019,-4.20015 2.40009,-4.20015 l 1.40005,-2.59969 1.00004,-2.00007 1.20004,-2.8001 1.00004,-2.40009 1.40005,-3.80014 0.80003,-2.40009 1.00004,-3.40012 0.80003,-3.60013 1.20004,-5.6002 0.20001,-1.60006 0.40001,-2.60009 0.20001,-2.19968 0.40002,-5.000178 0,-10.4004 -0.20001,-3.40012 -0.40002,-3.40012 -0.40001,-2.40009 -0.20001,-1.40005 -0.40001,-1.80007 -0.40002,-1.60006 -0.2,-0.799629 -0.40002,-1.20004 -0.40001,-1.40005 c -0.16521,-0.483418 -0.78093,-1.90397 -1.00004,-2.40009 l -1.00004,-2.20008 -1.00004,-1.80007 -1.20004,-1.80007 -2.20008,-2.40009 c -0.21931,-0.198807 -3.69883,-2.7441 -3.80014,-2.8001 l -2.00007,-0.800029 -2.00007,-0.600022 -2.99971,-0.600022 -5.4002,0 -2.8001,0.400015 -3.40012,0.800029 -3.00011,0.800029 -3.00011,1.00004 -2.39649,0.979236 -2.40369,1.02084 -3.00011,1.40005 -4.00015,2.00007 -4.79977,2.60009 -1.40005,0.800029 -7.00025,4.20015 -1.80007,1.20004 -3.20012,1.99967 -4.00015,2.60009 -3.20012,2.20008 c 0,10e-5 2.60009,-28.8005 2.60009,-28.8006 l 61.6014,-4.60017 -19.2003,-19.6003 -40.0191,-0.200407 1.41805,-17.7998 -0.60003,-1.80007 -0.80003,-1.20004 -1.20004,-1.20004 -1.40005,-0.800029 -0.60002,-0.200007 -1.40005,-0.200007 -33.600797,0 -1.20004,0.200007 z"
   id="path10"
   style="fill:#cc1f2f;fill-opacity:1" />
  <path
   d="m 51.2011,175.604 -0.600022,1.00014 0,0.60002 0.200007,0.40002 0.400015,0.40001 0.400015,0.19991 0.800029,0.40011 0.800029,0.40002 1.60006,0.59992 1.00004,0.40002 2.40009,0.60012 1.80007,0.2 1.60006,0 1.00004,-0.2 0.600022,-0.40002 0.800029,-0.60012 1.80007,-1.59996 c 3.43712,-3.43712 7.33137,-6.59034 11,-9.80036 l -0.800029,14.0005 0,2.39999 0.200007,1.00014 0.200007,0.40002 0.200007,0.2 0.800029,0.19991 27.200595,0 0.80003,-0.19991 0.20001,-0.2 0.20001,-0.40002 0.2,-1.00014 0,-2.39999 -0.80002,-14.0005 c -10e-5,-3e-4 12.0005,10.6003 12.0004,10.6004 l 0.80002,0.79993 0.80003,0.60012 0.60003,0.40002 1.00004,0.2 1.60006,0 1.80007,-0.2 1.60006,-0.40002 1.80007,-0.60012 1.00004,-0.40002 0.60002,-0.1999 0.80003,-0.40002 0.80003,-0.40011 0.40001,-0.19991 0.40002,-0.40001 0.2,-0.40002 0,-0.60002 c 1e-4,0.29971 -29.4013,-43.801 -29.4011,-43.8008 l -22.000397,0 c -2e-4,0 -28.8006,42.8007 -28.8006,42.8007 z"
   id="path12"
   style="fill:#cc1f2f;fill-opacity:1" />
 </g>
</svg>