<?xml version="1.0" encoding="UTF-8"?>
<!DOCTYPE svg PUBLIC "-//W3C//DTD SVG 1.1//EN" "http://www.w3.org/Graphics/SVG/1.1/DTD/svg11.dtd">
<!-- Creator: CorelDRAW -->
<svg xmlns="http://www.w3.org/2000/svg" xml:space="preserve" width="181.998mm" height="186.398mm" style="shape-rendering:geometricPrecision; text-rendering:geometricPrecision; image-rendering:optimizeQuality; fill-rule:evenodd; clip-rule:evenodd"
viewBox="0 0 182.004 186.404"
 xmlns:xlink="http://www.w3.org/1999/xlink">
 <defs>
  <style type="text/css">
   <![CDATA[
    .fil0 {fill:black}
   ]]>
  </style>
 </defs>
 <g id="Ebene_x0020_1">
  <metadata id="CorelCorpID_0Corel-Layer"/>
  <path class="fil0" d="M72.6014 0.200007l-0.600022 0.200007 -0.800029 0.400015 -1.00004 0.600022 -1.00004 1.00004 -0.600022 1.00004 -0.599622 1.60006 1.19964 18.0003 -39.4006 0.400015 -19.2007 19.8003 61.0014 4.60017 2.60009 28.0006 -2.40009 -1.60006c-0.728926,-0.364513 -1.45815,-0.810729 -2.20008,-1.40005 -0.916433,-0.523519 -2.04957,-1.05104 -2.7997,-1.79967l-1.80007 -1.20044 -1.60006 -0.999636 -1.60006 -1.00004 -2.00007 -1.20004 -1.40005 -0.800029 -1.60006 -1.00004 -4.20015 -2.40009 -1.80007 -1.00004 -3.00011 -1.40005 -2.8001 -1.40005 -1.60006 -0.800029 -2.20008 -1.00004 -2.40009 -1.00004 -2.7997 -1.00004 -3.20012 -1.00004 -4.40016 -1.00004 -2.8001 -0.400015 -5.4002 0 -1.00004 0.200007 -2.00007 0.400015 -1.60006 0.400015 -1.00004 0.400015 -1.40005 0.600022 -0.600022 0.400015 -1.00004 0.600022 -1.40005 1.00004 -2.00007 2.00007c-0.261809,0.523519 -0.671924,0.744927 -1.00004,1.20004l-0.599622 0.800029c-0.0994036,0.137905 -0.300311,0.661124 -0.400415,0.800029l-1.19964 2.00007 -0.800029 1.60006 -0.600022 1.40005 -0.800029 2.60009 -0.600022 1.60006 -0.400015 1.79967 -0.400015 1.80007 -0.400015 2.00007 -0.400015 2.40009 -0.400015 3.40012 -0.200007 3.40012 0 10.4004 0.200007 3.40012 0.400015 3.79974 0.400015 2.60009 0.200007 1.60006 0.400015 2.20008 0.600022 3.00011 0.400015 1.60006 0.600022 2.40009 0.400015 1.40005 0.400015 1.40005 0.200007 0.600022 0.400015 1.20004c0.292111,0.584121 0.352413,1.20224 0.600022,1.80007l0.400015 1.20004 0.400015 1.00004 0.199607 0.600022 0.400415 1.00004 0.599622 1.60006 0.400015 0.800029 0.600022 1.40005 0.400015 0.800029 0.400015 0.800029 0.600022 1.20004 0.400015 0.800029 0.600022 1.19964 0.600022 1.20004 1.00004 1.80007 0.400015 0.600022 0.600022 1.00004 0.400015 0.600022 1.00004 1.60006 0.800029 1.20004 0.800029 1.20004 1.00004 1.40005 1.00004 1.40005 0.800029 1.00004 1.00004 1.20004 0.600022 0.800029 1.00004 1.20004 3.00011 3.00011 1.00004 0.800029 1.00004 0.600022 1.20004 0.600022 0.800029 0.400015 1.00004 0.400015 2.8001 0.600022 5.5998 0 3.20012 -0.600022 1.20004 -0.400015 3.00011 -1.40005 1.40005 -0.800029 1.00004 -0.600022 2.00007 -1.20004 1.60006 -1.20004 1.40005 -1.00004 1.60006 -1.20004 2.60009 -2.20008 1.00004 -0.800029 2.40009 -2.00007 2.00007 -1.80007 2.20008 -2.00007 2.20008 -1.80007c0.702925,-0.702925 1.88967,-1.95547 2.20008,-2.20008 0.0988036,-0.0528019 0.873432,-0.82083 1.39965,-1.20004l1.20004 -1.00004 0.200007 -0.200007 0.200007 -0.400015 0 -0.599622 -0.200007 -0.200007 -5.79981 -0.200007 -2.20008 -0.400015 -1.80007 -0.600022 -1.00004 -0.600022 -1.00004 -0.800029 -1.00004 -1.00004 -0.800029 -1.00004 -1.20004 -2.20008 -1.20004 -3.40012 -0.800029 -2.60009 -0.600022 -3.20012 -0.600022 -3.40012 -0.600022 -2.60009 -0.600022 -3.40012 -0.600022 -3.20012 -0.800029 -3.99975 0 -2.00007 0.800029 -0.800029 2.60009 0 2.00007 0.400015 2.40009 0.600022c1.35685,0.54272 2.6878,0.943934 4.00015,1.60006l2.20008 1.00004 1.40005 0.600022 0.800029 0.399614c0.806529,0.581221 2.08528,0.885532 2.7997,1.60006l2.00007 1.20004 2.20008 1.60006 2.40009 2.40009 0.800029 1.60006 1.40005 13.6005 23.4004 0 1.00004 -10.4004 0.600022 -2.60009 1.20004 -2.20008 2.40009 -2.40009 0.800029 -0.600022c0.690625,-0.345313 1.37675,-0.932634 2.00007,-1.40005 0.810029,-0.54002 1.72106,-1.24845 2.60009,-1.60006 1.03934,-0.519719 1.99107,-1.09524 3.00011,-1.59966l1.80007 -0.800029c0.756027,-0.330012 1.62826,-0.717326 2.40009,-1.00004l1.80007 -0.600022 1.00004 -0.400015 2.40009 -0.600022 2.00007 -0.400015 2.60009 0 0.800029 0.800029 0 2.00007c-0.0147005,0.296711 -1.42055,6.98475 -1.60006,7.99989l-0.400015 2.60009 -0.400015 2.00007 -0.600022 3.40012 -0.400015 1.80007 -0.400015 2.00007 -0.600022 2.20008 -0.600022 2.00007 -0.800029 1.80007 -0.600022 1.20004 -0.600022 1.00004 -0.800029 1.00004 -1.00004 1.00004 -2.00007 1.40005 -1.80007 0.600022 -2.20008 0.400015 -5.80021 0.200007 -0.200007 0.200007 0 0.599622 0.200007 0.400015c0.159806,0.221708 1.13034,0.953635 1.40005,1.20004l1.00004 1.00004 2.00007 1.80007 1.00004 1.00004 1.40005 1.20004 2.60009 2.20008 1.60006 1.60006 4.80017 4.00015 1.60006 1.20004c0.000200007,-0.000100004 8.3998,5.6004 8.3999,5.6002 0.000100004,-0.000200007 2.96221,1.60526 3.60013,1.80007l2.00007 0.600022 2.40009 0.400015 5.6002 0 2.8001 -0.600022c0.244809,-0.0746027 2.25618,-0.918233 2.40009,-1.00004l2.20008 -1.60006 3.60013 -3.60013c1.18134,-1.18134 2.01567,-2.61499 3.19972,-3.80014l1.40005 -2.20008 3.40012 -5.00018c-0.000100004,-0.000100004 2.40019,-4.20015 2.40009,-4.20015l1.40005 -2.59969 1.00004 -2.00007 1.20004 -2.8001 1.00004 -2.40009 1.40005 -3.80014 0.800029 -2.40009 1.00004 -3.40012 0.800029 -3.60013 1.20004 -5.6002 0.200007 -1.60006 0.400015 -2.60009 0.200007 -2.19968 0.400015 -5.00018 0 -10.4004 -0.200007 -3.40012 -0.400015 -3.40012 -0.400015 -2.40009 -0.200007 -1.40005 -0.400015 -1.80007 -0.400015 -1.60006 -0.200007 -0.799629 -0.400015 -1.20004 -0.400015 -1.40005c-0.165206,-0.483418 -0.780928,-1.90397 -1.00004,-2.40009l-1.00004 -2.20008 -1.00004 -1.80007 -1.20004 -1.80007 -2.20008 -2.40009c-0.219308,-0.198807 -3.69883,-2.7441 -3.80014,-2.8001l-2.00007 -0.800029 -2.00007 -0.600022 -2.99971 -0.600022 -5.4002 0 -2.8001 0.400015 -3.40012 0.800029 -3.00011 0.800029 -3.00011 1.00004 -2.39649 0.979236 -2.40369 1.02084 -3.00011 1.40005 -4.00015 2.00007 -4.79977 2.60009 -1.40005 0.800029 -7.00025 4.20015 -1.80007 1.20004 -3.20012 1.99967 -4.00015 2.60009 -3.20012 2.20008c0,0.000100004 2.60009,-28.8005 2.60009,-28.8006l61.6014 -4.60017 -19.2003 -19.6003 -40.0191 -0.200407 1.41805 -17.7998 -0.600022 -1.80007 -0.800029 -1.20004 -1.20004 -1.20004 -1.40005 -0.800029 -0.600022 -0.200007 -1.40005 -0.200007 -33.6008 0 -1.20004 0.200007z"/>
  <path class="fil0" d="M51.2011 175.604l-0.600022 1.00014 0 0.600022 0.200007 0.400015 0.400015 0.400015 0.400015 0.199907 0.800029 0.400115 0.800029 0.400015 1.60006 0.599922 1.00004 0.400015 2.40009 0.600122 1.80007 0.200007 1.60006 0 1.00004 -0.200007 0.600022 -0.400015 0.800029 -0.600122 1.80007 -1.59996c3.43712,-3.43712 7.33137,-6.59034 11,-9.80036l-0.800029 14.0005 0 2.39999 0.200007 1.00014 0.200007 0.400015 0.200007 0.200007 0.800029 0.199907 27.2006 0 0.800029 -0.199907 0.200007 -0.200007 0.200007 -0.400015 0.200007 -1.00014 0 -2.39999 -0.800029 -14.0005c-0.000100004,-0.000300011 12.0005,10.6003 12.0004,10.6004l0.800029 0.799929 0.800029 0.600122 0.600022 0.400015 1.00004 0.200007 1.60006 0 1.80007 -0.200007 1.60006 -0.400015 1.80007 -0.600122 1.00004 -0.400015 0.600022 -0.199907 0.800029 -0.400015 0.800029 -0.400115 0.400015 -0.199907 0.400015 -0.400015 0.200007 -0.400015 0 -0.600022c0.000100004,0.299711 -29.4013,-43.801 -29.4011,-43.8008l-22.0004 0c-0.000200007,0 -28.8006,42.8007 -28.8006,42.8007z"/>
 </g>
</svg>
