<?xml version="1.0" encoding="UTF-8" standalone="no"?>
<!-- Created with Inkscape (http://www.inkscape.org/) -->

<svg
   xmlns:svg="http://www.w3.org/2000/svg"
   xmlns="http://www.w3.org/2000/svg"
   version="1.1"
   width="500"
   height="500"
   id="svg2">
  <defs
     id="defs4" />
  <g
     transform="translate(-122.47361,-132.22139)"
     id="layer1">
    <path
       d="m 254.01342,605.90946 c -2.20182,-0.63697 -6.63195,-3.90825 -10.32263,-7.62242 -10.925,-10.9945 -12.65708,-21.13833 -6.30084,-36.90006 5.73545,-14.22225 14.24762,-23.96507 19.25014,-22.0332 2.42979,0.93833 5.87583,6.90535 7.46934,12.93363 1.20192,4.54693 0.95678,6.52636 -2.43816,19.68641 -3.53347,13.69701 -3.65275,14.75365 -1.86834,16.54943 1.76058,1.77178 2.11979,1.77738 4.70389,0.0735 2.92791,-1.93063 2.91802,-1.86928 4.45012,-27.6136 0.21984,-3.69407 0.95535,-4.99788 3.96797,-7.03385 4.70843,-3.18207 7.63913,-2.41751 11.13986,2.9061 7.18495,10.92628 4.79705,29.91692 -5.40259,42.96619 -4.90224,6.27182 -15.21143,8.81806 -24.64876,6.08794 l 0,-6e-5 z m 37.07403,-234.26241 c -3.96256,-1.49036 -4.04481,-4.46058 -0.37518,-13.54907 9.47376,-23.46341 29.41233,-31.87516 37.63312,-15.87675 2.50384,4.87267 4.21392,15.54939 3.38334,21.12338 -0.60975,4.09193 -1.32572,5.11363 -4.71893,6.73407 -4.91143,2.34545 -7.248,1.59598 -7.248,-2.32489 0,-1.79703 -1.37109,-4.36071 -3.45236,-6.4552 -2.87846,-2.89676 -4.04593,-3.35485 -7.0231,-2.75562 -4.98733,1.00382 -7.61227,3.77198 -8.4246,8.88425 -0.38264,2.40822 -1.01368,4.38558 -1.40231,4.39416 -0.38861,0.009 -1.72862,0.23715 -2.9778,0.50791 -1.24918,0.27078 -3.67657,-0.0361 -5.39418,-0.68224 z m 118.57359,-0.10997 c -2.05716,-1.01704 -2.52167,-1.97576 -2.06664,-4.26543 2.49988,-12.57885 11.87036,-26.63202 20.59058,-30.88029 12.84592,-6.25815 22.03048,2.19277 23.06933,21.22661 0.49055,8.9877 0.41884,9.30822 -2.62045,11.71414 -4.95499,3.9224 -7.89555,3.28492 -9.48573,-2.05641 -1.58174,-5.31295 -4.93248,-8.04121 -9.87591,-8.04121 -4.18579,0 -6.9275,2.67425 -9.00292,8.78138 -1.21432,3.57326 -2.06688,4.40393 -4.71839,4.59722 -1.77995,0.12983 -4.43039,-0.35443 -5.88987,-1.07598 l 0,-3e-5 z"
       id="path2864"
       style="fill:#fdfdfd" />
    <path
       d="m 243.40582,626.07265 c -9.81347,-3.62763 -19.08193,-12.2123 -24.23587,-22.44782 -6.43461,-12.77889 -7.48874,-28.91357 -4.35702,-66.6896 2.14638,-25.89059 1.40335,-58.3771 -1.70795,-74.6752 -2.13039,-11.15964 -2.82448,-12.73313 -4.75836,-10.78692 -0.87281,0.87835 -0.83832,3.0921 0.1206,7.74039 0.73863,3.5806 1.70311,10.30447 2.14327,14.94188 l 0.8003,8.43168 -2.88926,-0.70171 c -1.5891,-0.38595 -7.99956,-2.47447 -14.24545,-4.64117 -49.61482,-17.2114 -72.09607,-43.08299 -66.49194,-76.51939 3.10938,-18.5518 13.55942,-31.83648 37.5337,-47.71497 7.80737,-5.17094 20.07204,-13.28704 27.25482,-18.03581 14.7441,-9.74777 20.5752,-14.99725 23.86291,-21.48269 15.36702,-30.31352 -0.4577,-80.47835 -48.57406,-153.98112 -4.83029,-7.37876 -9.79207,-14.93133 -11.02621,-16.7835 -2.62209,-3.93518 -2.57001,-3.90991 10.75376,5.21825 28.6886,19.65465 63.83747,54.09091 93.55985,91.66305 l 8.74012,11.04842 5.91481,-3.48033 c 3.25314,-1.91415 10.42099,-5.79215 15.92856,-8.61775 l 10.01376,-5.13743 -0.79811,5.35594 c -0.87632,5.88094 -0.84309,5.88583 5.82096,0.85685 3.79197,-2.86158 24.4029,-12.96898 26.44625,-12.96898 0.69665,0 -0.47612,3.21424 -2.60615,7.14276 -4.01255,7.40053 -6.39361,17.01706 -5.44714,21.99969 0.5148,2.71013 1.12597,2.31194 10.95312,-7.13616 5.72435,-5.50355 12.65242,-11.79227 15.39573,-13.97494 4.77421,-3.79856 4.95055,-3.8475 4.11751,-1.14285 -0.47867,1.55412 -1.12808,7.19704 -1.44308,12.53984 -0.47773,8.10253 -0.16722,10.7966 1.87159,16.23864 1.34439,3.58848 3.32639,7.62071 4.40444,8.96052 1.93148,2.40046 2.03702,2.28008 7.22996,-8.24714 3.85224,-7.8093 7.54661,-13.14037 13.73334,-19.81751 l 8.46346,-9.13437 1.66538,3.99995 c 2.95381,7.09456 4.64625,16.28305 5.36777,29.14249 l 0.70535,12.57127 2.23378,-3.89357 c 5.42566,-9.45709 15.56386,-24.0426 20.70185,-29.78309 l 5.59262,-6.24845 3.00475,1.98131 c 4.56482,3.01001 12.00357,13.02587 16.21496,21.83255 l 3.7723,7.88843 1.35069,-3.31706 c 0.74289,-1.82438 1.57949,-6.70681 1.85913,-10.84982 0.41555,-6.15691 -0.005,-8.81111 -2.30078,-14.53185 -2.30158,-5.73439 -2.47225,-6.81762 -0.94455,-5.99483 1.65439,0.89104 11.60116,8.28752 19.07566,14.1848 l 2.69355,2.12517 14.43837,-14.14636 c 20.85497,-20.43316 44.1021,-37.40508 70.65144,-51.58015 10.60746,-5.66348 32.07361,-15.66574 33.6207,-15.66574 0.32225,0 -4.12659,5.27137 -9.8863,11.71414 -51.17872,57.24825 -73.74835,107.20964 -64.53041,142.84814 1.17941,4.5599 2.0862,5.40077 14.48865,13.43565 18.17161,11.77242 37.60816,31.08481 43.70725,43.42804 7.55939,15.29851 7.7214,28.4159 0.52836,42.77723 -4.31217,8.6095 -17.71512,22.35435 -28.87407,29.61063 -10.39753,6.76116 -30.67884,16.7539 -34.00382,16.7539 -4.50132,0 -22.12011,-6.7802 -38.51826,-14.82289 -24.31254,-11.92441 -51.19222,-30.02017 -77.75516,-52.34577 -5.28995,-4.44611 -10.01696,-7.83574 -10.50447,-7.53255 -2.50949,1.56083 0.56412,4.89367 16.05499,17.40905 35.82573,28.94432 68.40179,47.66054 105.70537,60.73184 22.14113,7.75834 35.9626,11.62266 49.19619,13.7547 8.78586,1.41545 8.87305,1.46302 8.07318,4.40383 -2.97323,10.93142 -2.16492,18.21182 2.57614,23.20284 1.61296,1.69801 4.39393,3.41028 6.17991,3.80505 1.786,0.39476 3.24725,1.08909 3.24725,1.54293 0,1.80494 -17.71504,29.83521 -25.33637,40.08941 -42.44127,57.10295 -105.21238,79.22431 -154.09121,54.30374 -16.86163,-8.59681 -36.73442,-25.93836 -48.11167,-41.98358 -9.66002,-13.62343 -23.80864,-47.47496 -29.72977,-71.13042 -1.73066,-6.91421 -3.53749,-13.02022 -4.01516,-13.56893 -0.47768,-0.5487 -2.40385,0.10253 -4.28037,1.44728 -18.60391,13.33143 -33.24365,6.84386 -42.37466,-18.7783 -1.44875,-4.06526 -3.1467,-7.21943 -3.77324,-7.00924 -0.62652,0.21016 -1.77806,3.42579 -2.55895,7.1458 -6.47525,30.8469 -7.67918,35.07502 -15.12109,53.10412 -8.23353,19.9469 -15.83528,44.3574 -15.83528,50.84975 0,10.36418 9.58621,25.14381 19.84535,30.59676 5.8504,3.10962 18.75066,3.39736 23.87594,0.53257 1.87376,-1.04734 15.90371,-12.21935 31.17766,-24.82667 15.27395,-12.60733 28.13902,-22.9224 28.58906,-22.9224 0.45002,0 2.37773,2.89764 4.2838,6.43919 l 3.46558,6.43922 -7.66235,7.13927 c -27.89697,25.99265 -46.65085,39.37341 -63.22904,45.11343 -7.76772,2.6895 -20.52106,2.95725 -26.98818,0.56664 z m 222.80395,-74.4689 c 3.37135,-4.31324 5.7248,-13.38807 5.7248,-22.07462 0,-8.28686 -1.68127,-11.93953 -5.18534,-11.2656 -1.94598,0.37427 -2.2808,1.78807 -2.939,12.40983 -0.66474,10.72723 -1.92893,16.22233 -6.16229,26.78559 -0.82956,2.07 -0.64126,2.04687 2.67334,-0.32836 1.96117,-1.40536 4.61099,-3.89244 5.88849,-5.52684 z m -22.07046,0.59373 c 5.31184,-4.69353 8.05676,-10.27572 9.68784,-19.7016 2.41268,-13.94288 -0.45381,-23.93742 -6.22611,-21.70829 -1.43133,0.55275 -1.78901,2.64973 -1.80247,10.56719 -0.0182,10.66519 -1.88468,20.4394 -5.54383,29.03015 -1.2694,2.98023 -1.83292,5.41859 -1.25225,5.41859 0.58067,0 2.89224,-1.62272 5.13682,-3.60604 z m -18.03297,-4.8835 c 7.49175,-7.78403 9.79817,-14.85376 9.79817,-30.03366 0,-11.73058 -1.12795,-14.37681 -5.8906,-13.81966 -2.93197,0.343 -2.93724,0.36343 -3.62207,14.05762 -0.73039,14.60533 -1.86838,20.13076 -6.15501,29.88526 -1.64794,3.75 -2.18705,6.11429 -1.39418,6.11429 0.71103,0 3.97968,-2.79173 7.26369,-6.20385 z M 308.18516,407.76536 c 14.93189,-4.46251 27.4855,-26.71706 27.46894,-48.6958 -0.0106,-13.63998 -3.33822,-21.55328 -11.37687,-27.05223 -3.14458,-2.1511 -4.98719,-2.59162 -9.05792,-2.16554 -2.81064,0.2942 -6.0927,0.94336 -7.29346,1.4426 -1.838,0.76419 -1.61356,-0.0943 1.41952,-5.42924 3.70619,-6.51895 4.63918,-10.59684 2.24039,-9.79215 -1.55662,0.52218 -18.89465,28.2689 -23.04256,36.87587 -11.26181,23.36844 -6.58421,50.55983 9.5437,55.47849 4.08804,1.24677 3.60551,1.2784 10.09826,-0.662 z m 6.20611,-74.36387 c 0.37735,-0.37974 1.35683,-0.42035 2.17659,-0.0901 0.90593,0.36482 0.63684,0.63563 -0.6861,0.69047 -1.19712,0.0496 -1.86785,-0.2205 -1.49049,-0.60026 l 0,-4e-5 z m 116.09325,73.97477 c 6.25528,-2.88238 14.81259,-12.48533 18.8357,-21.13722 9.19233,-19.76852 8.2109,-41.82036 -2.28599,-51.36402 -5.24095,-4.76499 -10.71666,-5.98752 -17.02369,-3.80075 l -4.66306,1.61678 2.12635,-3.58521 c 5.17849,-8.73143 6.25171,-10.9901 5.5551,-11.69112 -1.68675,-1.6975 -4.20689,0.98308 -9.40693,10.00584 -3.02032,5.24067 -7.49963,12.54745 -9.954,16.23728 -9.47999,14.25188 -13.53214,30.36645 -11.09168,44.10929 3.16138,17.80262 14.51554,25.7804 27.9082,19.60913 z m 62.90176,-94.5008 c -4.52056,-12.15919 -16.55212,-21.59129 -33.57101,-26.31794 -9.22473,-2.56197 -30.42612,-3.53838 -32.85122,-1.51291 -2.36287,1.97347 -1.67645,10.67953 1.18898,15.08058 1.90884,2.93175 2.52184,3.11115 10.69532,3.12986 22.62832,0.0518 42.09328,9.31437 53.02717,25.23349 l 3.33921,4.8617 0.33354,-6.88123 c 0.23958,-4.94276 -0.36946,-8.77211 -2.16199,-13.59355 z M 292.70726,296.86649 c 14.01469,-5.81273 18.596,-6.38572 36.99119,-4.6266 l 10.50446,1.00455 0,-5.91839 c 0,-10.65302 -5.09203,-16.09045 -15.06833,-16.09045 -7.40433,0 -15.93933,2.89785 -29.19709,9.91314 -11.62857,6.15323 -22.89228,9.48731 -32.20476,9.53268 -1.97499,0.009 -2.92347,0.67201 -3.86037,1.29557 -1.44445,0.96138 -1.27181,1.48558 1.13562,3.44798 10.28246,8.38172 14.64524,8.51485 31.69928,1.44152 z M 122.47361,410.66245 c 0,-2.82853 0.22146,-3.98567 0.49214,-2.5714 0.2707,1.41428 0.2707,3.72853 0,5.14279 -0.27068,1.41427 -0.49214,0.25715 -0.49214,-2.57139 z m 396.60732,-85.38649 c -1.60335,-3.97219 -2.02766,-21.98807 -0.6864,-29.14479 6.21395,-33.15672 32.56929,-76.69213 70.43563,-116.35003 l 8.15831,-8.54431 -0.52948,14.28554 c -2.04605,55.20323 -32.93897,113.94516 -73.5684,139.88805 -2.81071,1.79471 -3.03412,1.78681 -3.80966,-0.13448 z M 196.97962,303.50549 c -24.05024,-25.09572 -41.50192,-58.38261 -48.88555,-93.24313 -4.05824,-19.16029 -3.27067,-59.349 1.33382,-68.06303 0.58876,-1.11423 4.32217,3.63185 12.13647,15.42837 28.11419,42.44137 45.49873,76.47611 52.79935,103.3683 2.1611,7.96054 2.62414,12.49412 2.6217,25.66797 -0.002,15.23214 -0.15665,16.3151 -3.20542,22.57115 -1.76134,3.61425 -3.60956,6.57135 -4.10715,6.57135 -0.49758,0 -6.20953,-5.53543 -12.69322,-12.30098 z m 403.3694,-113.88793 c -0.0492,-1.20474 0.2191,-1.87974 0.59646,-1.49998 0.37734,0.37976 0.41768,1.36545 0.0896,2.19044 -0.3625,0.91169 -0.6316,0.64089 -0.68608,-0.69046 l 5e-5,0 z"
       id="path2862"
       style="fill:#eb6c00;fill-opacity:1" />
    <path
       d="m 243.57199,630.20674 c -11.45534,-3.68841 -22.04508,-12.84955 -27.59578,-23.87298 -6.25135,-12.41495 -8.13811,-28.13305 -6.33984,-52.81593 2.1366,-29.32703 2.88868,-48.35351 2.27402,-57.52984 l -0.60008,-8.95901 -14.82862,-4.9047 c -36.57983,-12.09911 -57.94015,-27.17845 -68.25708,-48.18614 -3.90467,-7.95084 -4.32936,-9.74101 -4.73762,-19.97026 -0.80033,-20.05238 4.24334,-33.17581 18.33128,-47.69735 6.49544,-6.69537 16.17867,-13.58136 48.46429,-34.46426 6.31659,-4.08566 12.55767,-8.57117 13.8691,-9.9678 l 2.3844,-2.53933 -7.88013,-7.74626 c -21.2896,-20.92792 -38.51961,-48.82186 -48.1295,-77.91765 -7.39447,-22.38813 -8.4899,-29.63631 -8.48045,-56.11275 0.008,-20.70761 0.31483,-24.65474 2.64741,-33.98954 1.45148,-5.80868 3.13174,-10.86765 3.73388,-11.24217 1.35656,-0.84373 13.05883,6.10202 26.42986,15.68711 27.08767,19.41796 59.88521,51.92314 87.46646,86.68674 4.23895,5.34279 8.12757,9.873 8.64137,10.06716 0.51382,0.19414 2.93351,-0.91715 5.37711,-2.46954 2.4436,-1.55239 10.15509,-5.70552 17.13665,-9.22918 6.98154,-3.52365 13.73799,-7.45755 15.0143,-8.74198 4.62771,-4.65716 13.18443,-9.19894 23.74419,-12.60305 5.92959,-1.9115 10.93806,-3.63343 11.12992,-3.82651 0.87479,-0.88037 -14.16239,-11.08923 -23.76008,-16.13091 l -10.63363,-5.58587 5.67809,-0.78248 c 14.96815,-2.06274 31.37835,-0.61438 44.96347,3.96845 l 7.48808,2.52606 -2.68037,-6.09937 c -1.47421,-3.35466 -3.9839,-8.68813 -5.57711,-11.85216 -1.59319,-3.16404 -2.67192,-5.97902 -2.39715,-6.25553 0.80525,-0.81038 15.3799,5.03186 19.3213,7.74496 5.32163,3.66318 11.96834,10.20701 14.44906,14.2254 l 2.1769,3.52626 5.8139,-5.63949 c 10.09317,-9.79043 25.15335,-15.3459 44.76672,-16.51377 l 11.35618,-0.67619 -9.11067,6.92076 c -5.01089,3.8064 -11.47907,9.46887 -14.37377,12.58322 -4.79322,5.15693 -10.01629,13.52752 -10.01629,16.05228 0,0.55744 6.41412,1.60738 14.25359,2.33321 17.56439,1.62622 26.60042,3.84215 35.19347,8.63059 8.2224,4.58188 9.45177,6.91905 3.21681,6.1155 -4.8511,-0.62519 -31.89757,1.08945 -33.56744,2.12805 -0.57716,0.35897 2.65461,2.95086 7.1817,5.75976 4.5271,2.80889 11.44264,7.647 15.36788,10.75137 3.92524,3.10434 7.39572,5.64427 7.71216,5.64427 0.31645,0 5.05442,-4.42874 10.52884,-9.84166 17.84547,-17.64497 38.36936,-33.18547 63.15054,-47.81702 19.32853,-11.41212 53.85929,-26.77147 56.4979,-25.13037 1.76044,1.09495 0.6612,28.04851 -1.67517,41.07528 -9.31419,51.93231 -35.49557,97.45446 -69.11882,120.17838 -3.28243,2.21839 -6.12789,4.18913 -6.32321,4.37944 -0.19535,0.19029 3.93259,3.15868 9.17319,6.59641 18.66383,12.24309 31.0665,23.94414 40.58005,38.28434 7.70347,11.61181 9.65403,17.91378 9.65403,31.19045 0,10.38105 -0.2178,11.36302 -4.43618,19.99975 -3.39788,6.95682 -6.58748,11.23497 -13.62743,18.2782 -10.56424,10.56918 -17.80554,15.64042 -35.24491,24.68276 l -12.43979,6.45007 9.594,3.05024 c 5.27669,1.67764 16.44211,4.41467 24.81201,6.08228 l 15.21804,3.032 1.75732,-2.81813 c 2.86602,-4.59616 12.01848,-13.19841 17.45217,-16.40302 7.82415,-4.61444 18.60588,-6.93361 24.63655,-5.29938 16.48657,4.46761 16.04713,26.02439 -0.88402,43.36549 -7.56901,7.7523 -14.39919,11.9905 -22.81764,14.15866 l -6.14539,1.58271 -7.46475,12.45972 c -25.49254,42.55049 -48.56392,66.5169 -79.15827,82.22909 -47.37417,24.32972 -94.79744,17.03456 -132.53666,-20.38819 -4.56968,-4.53137 -10.40858,-10.78895 -12.97534,-13.90575 l -4.66681,-5.66691 -5.11365,4.52407 c -39.69002,35.11398 -52.96376,44.20541 -71.61565,49.05087 -8.70421,2.26122 -15.50459,2.14253 -23.42889,-0.40893 z m 26.82201,-4.70073 c 16.57819,-5.74002 35.33206,-19.12078 63.22904,-45.11343 l 7.66234,-7.13927 -3.46557,-6.43922 c -1.90607,-3.54155 -3.83379,-6.43919 -4.28381,-6.43919 -0.45004,0 -13.31511,10.31507 -28.58906,22.9224 -15.27395,12.60732 -29.3039,23.77933 -31.17766,24.82667 -5.12528,2.86479 -18.02553,2.57705 -23.87593,-0.53257 -10.25915,-5.45295 -19.84536,-20.23258 -19.84536,-30.59676 0,-6.49235 7.60175,-30.90285 15.83528,-50.84975 7.44191,-18.0291 8.64584,-22.25722 15.1211,-53.10412 0.78088,-3.72001 1.93242,-6.93564 2.55895,-7.1458 0.62654,-0.21019 2.32448,2.94398 3.77324,7.00924 9.13101,25.62216 23.77074,32.10973 42.37465,18.7783 1.87653,-1.34472 3.80269,-1.99598 4.28037,-1.44728 0.47767,0.54871 2.28451,6.65472 4.01517,13.56893 5.92112,23.65546 20.06975,57.50699 29.72977,71.13042 11.37725,16.04522 31.25003,33.38677 48.11166,41.98358 41.34802,21.08102 94.21231,8.55549 134.49374,-31.86663 6.32159,-6.34367 15.14045,-16.44037 19.59748,-22.43711 7.62133,-10.2542 25.33637,-38.28447 25.33637,-40.08941 0,-0.45384 -1.46126,-1.14817 -3.24725,-1.54293 -1.78598,-0.39477 -4.56696,-2.10704 -6.17991,-3.80505 -4.74106,-4.99102 -5.54938,-12.27142 -2.57615,-23.20284 0.79987,-2.94081 0.71268,-2.98838 -8.07317,-4.40383 -13.23359,-2.13204 -27.05506,-5.99636 -49.19619,-13.7547 -37.30359,-13.0713 -69.87965,-31.78752 -105.70538,-60.73184 -15.49087,-12.51538 -18.56447,-15.84822 -16.05498,-17.40905 0.48751,-0.30319 5.21452,3.08644 10.50447,7.53255 26.56293,22.3256 53.44261,40.42136 77.75516,52.34577 16.39815,8.04269 34.01693,14.82289 38.51825,14.82289 3.32498,0 23.60629,-9.99274 34.00383,-16.7539 11.15894,-7.25628 24.5619,-21.00113 28.87406,-29.61063 7.19304,-14.36133 7.03103,-27.47872 -0.52836,-42.77723 -6.09908,-12.34323 -25.53564,-31.65562 -43.70725,-43.42804 -12.40244,-8.03488 -13.30923,-8.87575 -14.48865,-13.43565 -2.24636,-8.68493 -2.68342,-18.11868 -1.28528,-27.74152 4.75436,-32.72223 27.09434,-71.79312 65.8157,-115.10662 5.7597,-6.44277 10.20854,-11.71414 9.88629,-11.71414 -1.54709,0 -23.01324,10.00226 -33.62069,15.66574 -26.54934,14.17507 -49.79647,31.14699 -70.65145,51.58015 l -14.43837,14.14636 -2.69354,-2.12517 c -7.47451,-5.89728 -17.42128,-13.29376 -19.07567,-14.1848 -1.5277,-0.82279 -1.35702,0.26044 0.94455,5.99483 2.29611,5.72074 2.71633,8.37494 2.30079,14.53185 -0.27964,4.14301 -1.11624,9.02544 -1.85914,10.84982 l -1.35069,3.31706 -3.77229,-7.88843 c -4.2114,-8.80668 -11.65015,-18.82253 -16.21496,-21.83255 l -3.00475,-1.98131 -5.59262,6.24845 c -5.138,5.74049 -15.2762,20.326 -20.70185,29.78309 l -2.23379,3.89357 -0.70534,-12.57127 c -0.72153,-12.85944 -2.41397,-22.04793 -5.36777,-29.14249 l -1.66539,-3.99995 -8.46346,9.13437 c -6.18673,6.67714 -9.8811,12.00821 -13.73334,19.81751 -5.19293,10.52722 -5.29847,10.6476 -7.22995,8.24714 -1.07806,-1.33981 -3.06006,-5.37204 -4.40444,-8.96052 -2.03882,-5.44204 -2.34932,-8.13611 -1.87159,-16.23864 0.315,-5.3428 0.9644,-10.98572 1.44307,-12.53984 0.83305,-2.70465 0.65671,-2.65571 -4.11751,1.14285 -2.7433,2.18267 -9.67138,8.47139 -15.39572,13.97494 -9.82715,9.4481 -10.43832,9.84629 -10.95313,7.13616 -0.94646,-4.98263 1.4346,-14.59916 5.44715,-21.99969 2.13002,-3.92852 3.3028,-7.14276 2.60614,-7.14276 -2.04335,0 -22.65428,10.1074 -26.44624,12.96898 -6.66405,5.02898 -6.69729,5.02409 -5.82097,-0.85685 l 0.79811,-5.35594 -10.01375,5.13743 c -5.50758,2.8256 -12.67542,6.7036 -15.92857,8.61775 l -5.9148,3.48033 -8.74012,-11.04842 c -29.72239,-37.57214 -64.87125,-72.0084 -93.55985,-91.66305 -13.32377,-9.12816 -13.37586,-9.15343 -10.75376,-5.21825 22.76695,34.1683 35.24749,55.13652 45.53938,76.50954 20.22256,41.99586 24.84501,72.98192 14.06089,94.25508 -3.28772,6.48544 -9.11881,11.73492 -23.86292,21.48269 -7.18277,4.74877 -19.44745,12.86487 -27.25482,18.03581 -23.97427,15.87849 -34.42432,29.16317 -37.53369,47.71497 -5.60414,33.4364 16.87712,59.30799 66.49194,76.51939 6.24589,2.1667 12.65635,4.25522 14.24544,4.64117 l 2.88926,0.70171 -0.80029,-8.43168 c -0.44017,-4.63741 -1.40465,-11.36128 -2.14327,-14.94188 -0.95888,-4.64829 -0.99337,-6.86204 -0.12061,-7.74039 1.93388,-1.94621 2.62797,-0.37272 4.75836,10.78692 3.11131,16.2981 3.85434,48.78461 1.70795,74.6752 -3.13172,37.77603 -2.07759,53.91071 4.35702,66.6896 5.15395,10.23552 14.42241,18.82019 24.23587,22.44782 6.46712,2.39061 19.22046,2.12286 26.98818,-0.56664 z m 187.25394,-68.04706 c 4.23336,-10.56326 5.49755,-16.05836 6.16229,-26.78559 0.6582,-10.62176 0.99302,-12.03556 2.939,-12.40983 3.50407,-0.67393 5.18534,2.97874 5.18534,11.2656 0,13.13686 -3.7001,21.93093 -11.61329,27.60146 -3.3146,2.37523 -3.5029,2.39836 -2.67334,0.32836 z m -17.3932,-7.07402 c 3.65915,-8.59075 5.52571,-18.36496 5.54383,-29.03015 0.0179,-10.5449 1.15558,-12.56696 5.69492,-10.12211 4.58313,2.4684 3.87323,23.26169 -1.13119,33.1336 -2.12126,4.18445 -9.32495,11.43725 -11.35981,11.43725 -0.58067,0 -0.0172,-2.43836 1.25225,-5.41859 z m -20.01791,-2.98139 c 4.28663,-9.7545 5.42462,-15.27993 6.15501,-29.88526 0.68483,-13.69419 0.6901,-13.71462 3.62207,-14.05762 4.76265,-0.55715 5.8906,2.08908 5.8906,13.81966 0,15.1799 -2.30642,22.24963 -9.79817,30.03366 -3.28401,3.41212 -6.55266,6.20385 -7.26369,6.20385 -0.79287,0 -0.25376,-2.36429 1.39418,-6.11429 z M 298.0869,408.42736 c -5.52694,-1.6856 -8.93011,-4.84901 -11.99206,-11.14722 -5.72348,-11.77281 -4.75028,-29.39395 2.44836,-44.33127 4.14791,-8.60697 21.48594,-36.35369 23.04256,-36.87587 2.39879,-0.80469 1.4658,3.2732 -2.24039,9.79215 -3.03308,5.33499 -3.25752,6.19343 -1.41952,5.42924 1.20076,-0.49924 4.48282,-1.1484 7.29346,-1.4426 4.07073,-0.42608 5.91334,0.014 9.05792,2.16554 8.03865,5.49895 11.36659,13.41225 11.37687,27.05223 0.0166,21.97874 -12.53705,44.23329 -27.46894,48.6958 -6.49275,1.9404 -6.01022,1.90877 -10.09826,0.662 z m 0.57309,-36.17243 c 0.98796,-0.38153 1.79631,-1.69276 1.79631,-2.91385 0,-7.15309 6.97837,-12.18632 13.22886,-9.54146 3.0996,1.3116 4.33129,3.20699 6.50236,10.00619 0.785,2.45843 3.18692,2.54256 7.56353,0.26492 4.08844,-2.12766 5.01162,-5.46079 4.13352,-14.92408 -1.0397,-11.20464 -5.6255,-18.70816 -12.91275,-21.12847 -3.38716,-1.12498 -4.62358,-0.90839 -10.04089,1.75893 -9.21663,4.53795 -16.19957,14.12194 -20.21107,27.73941 l -1.7664,5.99627 3.06066,1.67215 c 3.34425,1.82711 5.87446,2.14025 8.64587,1.06999 z m 115.47605,35.30076 c -8.92449,-4.4241 -14.13688,-20.4725 -11.6236,-35.78785 1.65367,-10.07699 5.34117,-19.36884 11.15556,-28.11 2.45437,-3.68983 6.93368,-10.99661 9.954,-16.23728 5.20004,-9.02276 7.72018,-11.70334 9.40693,-10.00584 0.69661,0.70102 -0.37661,2.95969 -5.5551,11.69112 l -2.12635,3.58521 4.66306,-1.61678 c 6.30703,-2.18677 11.78274,-0.96424 17.02369,3.80075 13.7956,12.54281 10.38321,46.19908 -6.53922,64.49596 -8.805,9.52015 -17.94195,12.35725 -26.35897,8.18471 z m 6.43867,-39.74986 c 1.74316,-5.50947 5.08031,-8.57131 9.342,-8.57131 4.3254,0 7.97229,3.27283 8.93713,8.02049 0.97658,4.80526 3.64109,5.63915 8.90428,2.78673 3.6886,-1.99909 3.73532,-2.12685 3.73532,-10.21218 0,-20.10672 -10.38129,-30.3658 -23.77118,-23.49132 -8.06853,4.14243 -16.58907,16.40216 -19.50835,28.06946 -1.23904,4.95201 -1.16548,5.5999 0.80031,7.04797 1.19064,0.87708 3.95339,1.44323 6.13946,1.25812 3.53596,-0.29945 4.1343,-0.84113 5.42103,-4.90796 z m 71.30081,-39.31729 c -10.93389,-15.91912 -30.39885,-25.1817 -53.02717,-25.23349 -8.17348,-0.0188 -8.78648,-0.19811 -10.69532,-3.12986 -2.86543,-4.40105 -3.55185,-13.10711 -1.18898,-15.08058 2.4251,-2.02547 23.62649,-1.04906 32.85122,1.51291 23.20023,6.44338 36.62826,21.44163 35.733,39.91149 l -0.33354,6.88123 -3.33921,-4.8617 z M 266.38777,299.79312 c -2.04723,-1.57331 -10.58818,-4.90105 -7.94934,-7.96045 0.9369,-0.62355 3.31931,-1.14162 5.2943,-1.15125 9.31248,-0.0453 20.57619,-3.37945 32.20476,-9.53268 13.25776,-7.01529 21.79276,-9.91314 29.19709,-9.91314 9.9763,0 15.06833,5.43743 15.06833,16.09045 l 0,5.91839 -10.50446,-1.00455 c -18.39519,-1.75912 -22.9765,-1.18613 -36.99119,4.6266 -14.06424,5.83329 -19.89216,6.48133 -26.31949,2.92663 z m 5.73854,305.1216 c 7.64093,-3.9229 14.50399,-15.94892 16.41302,-28.7602 1.04382,-7.00495 -1.93019,-17.31944 -6.24609,-21.6628 -4.0396,-4.0653 -5.87914,-4.0863 -10.22725,-0.1168 -3.39117,3.09594 -1.73233,4.22174 -4.14763,17.42835 -1.41494,7.73678 -1.20891,14.92839 -1.82469,15.71409 -1.3807,1.76167 -6.10922,1.87855 -7.15428,0.17684 -0.42281,-0.68844 0.9281,-7.85591 3.00198,-15.92773 l 2.48016,-14.96465 -0.75135,-6.23023 c -2.15735,-6.88741 -6.10047,-11.91077 -9.34944,-11.91077 -2.90298,0 -10.79631,8.90199 -14.21239,16.0285 -7.35179,15.33713 -8.39195,24.23756 -3.93657,33.68517 3.11516,6.60574 10.84598,14.54757 16.58856,17.0414 5.69073,2.47127 13.99486,2.25635 19.36597,-0.50121 z M 529.85107,320.5664 c 8.46036,-6.25271 15.11139,-12.51948 22.03266,-20.75972 26.18131,-31.17064 43.10272,-74.55461 44.57526,-114.28431 l 0.52948,-14.28554 -8.15831,8.54431 c -37.86634,39.6579 -64.22168,83.19331 -70.43563,116.35003 -1.34126,7.15672 -0.91695,25.1726 0.6864,29.14479 0.91619,2.26976 1.92126,1.83028 10.77014,-4.70956 z M 213.77999,309.23512 c 3.04877,-6.25605 3.20256,-7.33901 3.20542,-22.57115 0.002,-13.17385 -0.4606,-17.70743 -2.6217,-25.66797 -7.30062,-26.89219 -24.68516,-60.92693 -52.79935,-103.3683 -7.8143,-11.79652 -11.54771,-16.5426 -12.13647,-15.42837 -4.60449,8.71403 -5.39206,48.90274 -1.33382,68.06303 7.38363,34.86052 24.83531,68.14741 48.88555,93.24313 6.48369,6.76555 12.19564,12.30098 12.69322,12.30098 0.49759,0 2.34581,-2.9571 4.10715,-6.57135 z"
       id="path2860"
       style="fill:#080603" />
  </g>
</svg>
